<svg width="298" height="256" viewBox="0 0 298 256" fill="none" xmlns="http://www.w3.org/2000/svg">
<path d="M292.172 45.4795L150.759 0.831182C149.366 0.388284 147.847 0.388284 146.454 0.831182L5.04125 45.4795C2.06614 46.4075 0.0405273 49.1703 0.0405273 52.2917V203.931C0.0405273 207.053 2.06614 209.795 5.04125 210.744L146.454 255.392C147.847 255.835 149.366 255.835 150.759 255.392L292.172 210.744C295.147 209.816 297.172 207.053 297.172 203.931V52.2917C297.151 49.1703 295.126 46.4286 292.172 45.4795Z" fill="#56804C"/>
<path d="M51.4199 164.386L42.8954 161.708C42.4312 161.56 42.0092 161.729 41.7138 162.172L33.4426 174.742L32.9361 174.594L24.6649 156.836C24.3695 156.224 23.9475 155.781 23.4833 155.634L14.9588 152.955C14.1359 152.702 13.4607 153.461 13.4607 154.664V200.725C13.4607 201.927 14.1359 203.129 14.9588 203.382L22.8503 205.85C23.6732 206.103 24.3484 205.344 24.3484 204.142V177.315L24.8548 177.462L32.9361 195.263L33.4426 195.41L41.5239 182.672L42.0303 182.819V209.667C42.0303 210.869 42.7055 212.072 43.5284 212.325L51.4199 214.792C52.2428 215.045 52.918 214.286 52.918 213.084V167.065C52.918 165.842 52.2428 164.66 51.4199 164.386Z" fill="white"/>
<path d="M75.3043 170.798C64.7754 167.508 56.6518 175.249 56.6518 191.172C56.6518 207.812 64.7964 220.087 75.3043 223.377C85.8333 226.667 93.9568 219.496 93.9568 202.856C93.9568 186.954 85.8122 174.089 75.3043 170.798ZM75.1988 207.728C70.9788 206.399 68.1936 201.063 68.1936 194.799C68.1936 188.599 70.9788 185.013 75.1988 186.321C79.4188 187.629 82.204 192.986 82.204 199.165C82.1829 205.45 79.4188 209.056 75.1988 207.728Z" fill="white"/>
<path d="M114.698 184.233L99.1898 179.382C98.3669 179.129 97.6917 179.888 97.6917 181.09V227.152C97.6917 228.354 98.3669 229.556 99.1898 229.809L114.698 234.66C124.721 237.803 132.254 231.581 132.254 215.025C132.254 198.448 124.721 187.375 114.698 184.233ZM113.454 221.31L110.542 220.403C109.719 220.15 109.044 218.948 109.044 217.746V197.625C109.044 196.423 109.719 195.643 110.542 195.917L113.053 196.697C118.897 198.532 121.282 204.037 121.282 211.524C121.303 219.011 118.918 223.018 113.454 221.31Z" fill="white"/>
<path d="M145.886 193.997L137.488 191.361C136.665 191.108 135.99 191.867 135.99 193.069V239.131C135.99 240.333 136.665 241.535 137.488 241.788L145.886 244.424C146.709 244.677 147.384 243.918 147.384 242.716V196.655C147.405 195.452 146.73 194.271 145.886 193.997Z" fill="white"/>
<path d="M199.437 195.727C199.437 187.797 195.914 182.946 188.381 185.351L161.647 193.85C160.824 194.124 160.149 195.305 160.149 196.528V242.59C160.149 243.792 160.824 244.572 161.647 244.298L188.381 235.799C195.914 233.394 199.437 226.371 199.437 218.441C199.437 214.055 198.382 211.207 196.357 209.604C195.597 209.014 195.66 207.284 196.42 206.209C198.403 203.404 199.437 199.523 199.437 195.727ZM185.532 223.714L172.303 227.932C171.48 228.206 170.805 227.426 170.805 226.224V223.398C170.805 222.195 171.48 220.993 172.303 220.719L185.532 216.501C187.115 215.995 188.402 216.585 188.402 219.053C188.423 221.71 187.136 223.208 185.532 223.714ZM185.532 206.42L172.303 210.638C171.48 210.912 170.805 210.132 170.805 208.93V206.103C170.805 204.901 171.48 203.699 172.303 203.425L185.532 199.207C187.115 198.701 188.402 199.228 188.402 201.885C188.423 204.416 187.136 205.914 185.532 206.42Z" fill="white"/>
<path d="M220.516 174.046C209.987 177.4 201.864 190.286 201.864 206.209C201.864 222.85 210.009 229.978 220.516 226.646C231.045 223.292 239.169 210.976 239.169 194.335C239.169 178.412 231.024 170.693 220.516 174.046ZM220.411 211.039C216.191 212.389 213.406 208.803 213.406 202.539C213.406 196.339 216.191 191.003 220.411 189.653C224.631 188.303 227.416 191.889 227.416 198.089C227.395 204.332 224.631 209.689 220.411 211.039Z" fill="white"/>
<path d="M272.064 162.172C272.781 160.506 272.064 158.713 270.84 159.114L261.218 162.172C260.712 162.341 260.248 162.847 259.973 163.543L254.909 176.071L254.614 176.155L249.613 166.833C249.339 166.306 248.854 166.095 248.368 166.264L238.557 169.385C237.333 169.765 236.615 172.021 237.333 173.245L247.419 190.518C247.799 191.15 247.799 192.184 247.419 193.07L237.333 216.754C236.615 218.42 237.333 220.213 238.557 219.833L248.368 216.712C248.875 216.543 249.339 216.037 249.613 215.341L254.572 202.919L254.973 202.792L259.973 212.051C260.248 212.578 260.733 212.789 261.218 212.62L270.84 209.562C272.064 209.183 272.781 206.947 272.064 205.724L262.062 188.409C261.682 187.776 261.682 186.763 262.062 185.878L272.064 162.172Z" fill="white"/>
<path d="M286.539 154.116L278.141 156.794C277.318 157.068 276.643 158.249 276.643 159.473V205.534C276.643 206.736 277.318 207.516 278.141 207.242L286.539 204.564C287.362 204.29 288.037 203.109 288.037 201.885V155.824C288.058 154.622 287.383 153.841 286.539 154.116Z" fill="white"/>
<path d="M226.023 104.322C230.264 102.972 233.05 97.5937 233.05 91.2877C233.05 85.066 230.264 81.4595 226.023 82.8093C221.782 84.1591 218.997 89.5372 218.997 95.7588C218.997 102.065 221.782 105.671 226.023 104.322Z" fill="white"/>
<path d="M273.392 68.2356C269.151 69.5854 266.366 74.9635 266.366 81.1851C266.366 87.4911 269.151 91.0976 273.392 89.7478C277.633 88.398 280.419 83.02 280.419 76.714C280.419 70.4712 277.633 66.8858 273.392 68.2356Z" fill="white"/>
<path d="M178.674 119.717C182.915 118.368 185.701 112.99 185.701 106.684C185.701 100.462 182.915 96.8555 178.674 98.2053C174.433 99.5551 171.648 104.933 171.648 111.155C171.627 117.482 174.433 121.067 178.674 119.717Z" fill="white"/>
<path d="M291.117 51.0261L151.772 7.28469C151.16 7.09488 150.506 7.09488 149.873 7.28469L10.5488 51.0261C9.24055 51.4479 8.33325 52.6501 8.33325 54.042V141.968C8.33325 143.339 9.21945 144.562 10.5488 144.984L149.894 188.725C150.506 188.915 151.16 188.915 151.793 188.725L152.574 188.388L151.962 188.578L152.004 98.6904L291.265 54.6959C292.109 54.4217 292.953 54.8224 293.354 55.5395V54.042C293.311 52.6501 292.425 51.4268 291.117 51.0261ZM29.2857 89.7481C25.0445 88.3983 22.2593 83.0202 22.2593 76.7142C22.2593 70.4925 25.0445 66.8861 29.2857 68.2359C33.5268 69.5857 36.312 74.9637 36.312 81.1854C36.312 87.4914 33.5268 91.0978 29.2857 89.7481ZM76.6343 104.322C72.3932 102.972 69.608 97.5937 69.608 91.2877C69.608 85.066 72.3932 81.4595 76.6343 82.8093C80.8755 84.1591 83.6607 89.5371 83.6607 95.7588C83.6818 102.065 80.8755 105.671 76.6343 104.322ZM124.004 119.717C119.763 118.368 116.978 112.99 116.978 106.684C116.978 100.462 119.763 96.8555 124.004 98.2053C128.245 99.5551 131.03 104.933 131.03 111.155C131.03 117.482 128.245 121.067 124.004 119.717ZM152.742 93.9029C151.265 94.3668 149.683 94.3668 148.227 93.9029L22.8501 54.4849C21.0144 53.9155 21.0144 51.3003 22.8501 50.7309L149.366 11.0599C149.915 10.8279 150.886 10.8068 151.287 11.313L185.068 83.7584L152.742 93.9029Z" fill="white"/>
</svg>
