<svg width="99" height="99" viewBox="0 0 99 99" fill="none" xmlns="http://www.w3.org/2000/svg">
<path opacity="0.3" d="M49.5 12.75C44.6739 12.75 39.8951 13.7006 35.4364 15.5474C30.9777 17.3943 26.9264 20.1013 23.5138 23.5138C20.1013 26.9264 17.3943 30.9777 15.5474 35.4364C13.7006 39.8951 12.75 44.6739 12.75 49.5C12.75 54.3261 13.7006 59.1049 15.5474 63.5636C17.3943 68.0223 20.1013 72.0736 23.5138 75.4862C26.9264 78.8987 30.9777 81.6057 35.4364 83.4526C39.8951 85.2994 44.6739 86.25 49.5 86.25C54.3261 86.25 59.1049 85.2994 63.5636 83.4526C68.0223 81.6057 72.0736 78.8987 75.4862 75.4862C78.8987 72.0736 81.6057 68.0223 83.4526 63.5636C85.2994 59.1049 86.25 54.3261 86.25 49.5C86.25 44.6739 85.2994 39.8951 83.4526 35.4364C81.6057 30.9777 78.8987 26.9264 75.4862 23.5138C72.0736 20.1013 68.0223 17.3943 63.5636 15.5474C59.1049 13.7006 54.3261 12.75 49.5 12.75Z" fill="#D9C9C9"/>
<path d="M49.5003 90.3333C27.042 90.3333 8.66699 71.9583 8.66699 49.5C8.66699 27.0417 27.042 8.66666 49.5003 8.66666C71.9587 8.66666 90.3337 27.0417 90.3337 49.5C90.3337 71.9583 71.9587 90.3333 49.5003 90.3333ZM49.5003 16.8333C31.5337 16.8333 16.8337 31.5333 16.8337 49.5C16.8337 67.4667 31.5337 82.1667 49.5003 82.1667C67.467 82.1667 82.167 67.4667 82.167 49.5C82.167 31.5333 67.467 16.8333 49.5003 16.8333Z" fill="#EB5757"/>
<path d="M30.1562 35.9298L35.9309 30.155L68.5585 62.7815L62.7839 68.5563L30.1562 35.9298Z" fill="#EB5757"/>
<path d="M30.1562 63.0709L62.7828 30.4433L68.5576 36.2179L35.9311 68.8455L30.1562 63.0709Z" fill="#EB5757"/>
</svg>
