<svg width="97" height="107" viewBox="0 0 97 107" fill="none" xmlns="http://www.w3.org/2000/svg">
<path d="M79.7 47.1C80.1 49.1 80.5 51.5 80.5 53.5C80.5 71.1 66.1 85.5 48.5 85.5C30.9 85.5 16.5 71.1 16.5 53.5C16.5 35.9 30.9 21.5 48.5 21.5C54.9 21.5 61.3 23.5 66.1 26.7L71.7 21.1C65.3 16.3 57.3 13.5 48.5 13.5C26.5 13.5 8.5 31.5 8.5 53.5C8.5 75.5 26.5 93.5 48.5 93.5C70.5 93.5 88.5 75.5 88.5 53.5C88.5 49.1 87.7 44.7 86.5 40.7L79.7 47.1Z" fill="#56804C"/>
<path d="M44.5002 71.1L25.7002 52.3L31.3002 46.7L44.5002 59.9L85.7002 18.7L91.3002 24.3L44.5002 71.1Z" fill="#56804C"/>
<path opacity="0.3" d="M48.5 13.5C37.8913 13.5 27.7172 17.7143 20.2157 25.2157C12.7143 32.7172 8.5 42.8913 8.5 53.5C8.5 64.1087 12.7143 74.2828 20.2157 81.7843C27.7172 89.2857 37.8913 93.5 48.5 93.5C59.1087 93.5 69.2828 89.2857 76.7843 81.7843C84.2857 74.2828 88.5 64.1087 88.5 53.5C88.5 42.8913 84.2857 32.7172 76.7843 25.2157C69.2828 17.7143 59.1087 13.5 48.5 13.5Z" fill="#56804C"/>
</svg>
